<svg width="24" height="24" viewBox="0 0 24 24" fill="none" xmlns="http://www.w3.org/2000/svg">
  <path
    d="M7.5 6C7.5 5.79 7.5 5.6865 7.512 5.5995C7.55018 5.32456 7.67704 5.0696 7.87332 4.87332C8.0696 4.67704 8.32456 4.55018 8.5995 4.512C8.685 4.5 8.79 4.5 9 4.5C9.21 4.5 9.3135 4.5 9.4005 4.512C9.67544 4.55018 9.9304 4.67704 10.1267 4.87332C10.323 5.0696 10.4498 5.32456 10.488 5.5995C10.5 5.685 10.5 5.79 10.5 6C10.5 6.21 10.5 6.3135 10.488 6.4005C10.4498 6.67544 10.323 6.9304 10.1267 7.12668C9.9304 7.32296 9.67544 7.44982 9.4005 7.488C9.315 7.5 9.21 7.5 9 7.5C8.79 7.5 8.6865 7.5 8.5995 7.488C8.32456 7.44982 8.0696 7.32296 7.87332 7.12668C7.67704 6.9304 7.55018 6.67544 7.512 6.4005C7.5 6.315 7.5 6.21 7.5 6ZM7.5 12C7.5 11.79 7.5 11.6865 7.512 11.5995C7.55018 11.3246 7.67704 11.0696 7.87332 10.8733C8.0696 10.677 8.32456 10.5502 8.5995 10.512C8.685 10.5 8.79 10.5 9 10.5C9.21 10.5 9.3135 10.5 9.4005 10.512C9.67544 10.5502 9.9304 10.677 10.1267 10.8733C10.323 11.0696 10.4498 11.3246 10.488 11.5995C10.5 11.685 10.5 11.79 10.5 12C10.5 12.21 10.5 12.3135 10.488 12.4005C10.4498 12.6754 10.323 12.9304 10.1267 13.1267C9.9304 13.323 9.67544 13.4498 9.4005 13.488C9.315 13.5 9.21 13.5 9 13.5C8.79 13.5 8.6865 13.5 8.5995 13.488C8.32456 13.4498 8.0696 13.323 7.87332 13.1267C7.67704 12.9304 7.55018 12.6754 7.512 12.4005C7.5 12.315 7.5 12.21 7.5 12ZM7.5 18C7.5 17.7915 7.5 17.6865 7.512 17.5995C7.5504 17.3251 7.67718 17.0706 7.87314 16.8746C8.06909 16.6787 8.32355 16.5519 8.598 16.5135C8.6865 16.5015 8.79 16.5015 8.9985 16.5015C9.207 16.5015 9.3135 16.5015 9.399 16.5135C9.67345 16.5519 9.92791 16.6787 10.1239 16.8746C10.3198 17.0706 10.4466 17.3251 10.485 17.5995C10.497 17.6865 10.497 17.7915 10.497 18C10.497 18.2085 10.497 18.3135 10.485 18.4005C10.4466 18.6749 10.3198 18.9294 10.1239 19.1254C9.92791 19.3213 9.67345 19.4481 9.399 19.4865C9.312 19.4985 9.207 19.4985 8.9985 19.4985C8.79 19.4985 8.685 19.4985 8.598 19.4865C8.32355 19.4481 8.06909 19.3213 7.87314 19.1254C7.67718 18.9294 7.5504 18.6749 7.512 18.4005C7.5 18.3135 7.5 18.2085 7.5 18ZM13.5 6C13.5 5.79 13.5 5.6865 13.512 5.5995C13.5502 5.32456 13.677 5.0696 13.8733 4.87332C14.0696 4.67704 14.3246 4.55018 14.5995 4.512C14.685 4.5 14.79 4.5 15 4.5C15.21 4.5 15.3135 4.5 15.4005 4.512C15.6754 4.55018 15.9304 4.67704 16.1267 4.87332C16.323 5.0696 16.4498 5.32456 16.488 5.5995C16.5 5.685 16.5 5.79 16.5 6C16.5 6.21 16.5 6.3135 16.488 6.4005C16.4498 6.67544 16.323 6.9304 16.1267 7.12668C15.9304 7.32296 15.6754 7.44982 15.4005 7.488C15.315 7.5 15.21 7.5 15 7.5C14.79 7.5 14.6865 7.5 14.5995 7.488C14.3246 7.44982 14.0696 7.32296 13.8733 7.12668C13.677 6.9304 13.5502 6.67544 13.512 6.4005C13.5 6.315 13.5 6.21 13.5 6ZM13.5 12C13.5 11.79 13.5 11.6865 13.512 11.5995C13.5502 11.3246 13.677 11.0696 13.8733 10.8733C14.0696 10.677 14.3246 10.5502 14.5995 10.512C14.685 10.5 14.79 10.5 15 10.5C15.21 10.5 15.3135 10.5 15.4005 10.512C15.6754 10.5502 15.9304 10.677 16.1267 10.8733C16.323 11.0696 16.4498 11.3246 16.488 11.5995C16.5 11.685 16.5 11.79 16.5 12C16.5 12.21 16.5 12.3135 16.488 12.4005C16.4498 12.6754 16.323 12.9304 16.1267 13.1267C15.9304 13.323 15.6754 13.4498 15.4005 13.488C15.315 13.5 15.21 13.5 15 13.5C14.79 13.5 14.6865 13.5 14.5995 13.488C14.3246 13.4498 14.0696 13.323 13.8733 13.1267C13.677 12.9304 13.5502 12.6754 13.512 12.4005C13.5 12.315 13.5 12.21 13.5 12ZM13.5 18C13.5 17.7915 13.5 17.6865 13.512 17.5995C13.5504 17.3251 13.6772 17.0706 13.8731 16.8746C14.0691 16.6787 14.3236 16.5519 14.598 16.5135C14.6865 16.5015 14.79 16.5015 14.9985 16.5015C15.2085 16.5015 15.3135 16.5015 15.399 16.5135C15.6734 16.5519 15.9279 16.6787 16.1239 16.8746C16.3198 17.0706 16.4466 17.3251 16.485 17.5995C16.497 17.6865 16.497 17.7915 16.497 18C16.497 18.2085 16.497 18.3135 16.485 18.4005C16.4466 18.6749 16.3198 18.9294 16.1239 19.1254C15.9279 19.3213 15.6734 19.4481 15.399 19.4865C15.312 19.4985 15.207 19.4985 14.9985 19.4985C14.79 19.4985 14.685 19.4985 14.598 19.4865C14.3236 19.4481 14.0691 19.3213 13.8731 19.1254C13.6772 18.9294 13.5504 18.6749 13.512 18.4005C13.5 18.3135 13.5 18.2085 13.5 18Z"
    fill="currentColor" />
</svg>