<svg width="24" height="24" viewBox="0 0 24 24" fill="none" xmlns="http://www.w3.org/2000/svg">
  <path
    d="M15.18 16.2405L21.219 22.281C21.2887 22.3507 21.3715 22.406 21.4626 22.4438C21.5537 22.4815 21.6514 22.5009 21.75 22.5009C21.8486 22.5009 21.9462 22.4815 22.0373 22.4438C22.1285 22.406 22.2112 22.3507 22.281 22.281C22.3507 22.2112 22.406 22.1285 22.4438 22.0373C22.4815 21.9462 22.5009 21.8486 22.5009 21.75C22.5009 21.6514 22.4815 21.5537 22.4438 21.4626C22.406 21.3715 22.3507 21.2887 22.281 21.219L2.78097 1.71897C2.71124 1.64924 2.62846 1.59392 2.53735 1.55619C2.44624 1.51845 2.34859 1.49902 2.24997 1.49902C2.15136 1.49902 2.0537 1.51845 1.9626 1.55619C1.87149 1.59392 1.7887 1.64924 1.71897 1.71897C1.64924 1.7887 1.59392 1.87149 1.55619 1.9626C1.51845 2.0537 1.49902 2.15136 1.49902 2.24997C1.49902 2.34859 1.51845 2.44624 1.55619 2.53735C1.59392 2.62846 1.64924 2.71124 1.71897 2.78097L6.56397 7.62597C5.9047 8.09329 5.31136 8.64727 4.79997 9.27297C4.07607 10.1612 3.5094 11.1667 3.12447 12.246C3.09297 12.3375 3.05397 12.4635 3.05397 12.4635L3.02697 12.5565C3.02697 12.5565 2.91297 13.302 3.55947 13.473C3.75161 13.5238 3.95606 13.4962 4.1279 13.3964C4.29975 13.2965 4.42493 13.1325 4.47597 12.9405L4.47747 12.936L4.48947 12.8985L4.54197 12.735C4.86891 11.8238 5.34822 10.9747 5.95947 10.224C6.44102 9.63434 7.00953 9.12146 7.64547 8.70297L10.0125 11.07C9.53482 11.3694 9.1308 11.7726 8.83048 12.2496C8.53016 12.7267 8.34125 13.2653 8.27782 13.8255C8.21439 14.3856 8.27806 14.9528 8.46409 15.485C8.65013 16.0171 8.95374 16.5005 9.35235 16.8991C9.75097 17.2977 10.2343 17.6013 10.7665 17.7873C11.2986 17.9734 11.8658 18.0371 12.426 17.9736C12.9861 17.9102 13.5247 17.7213 14.0018 17.421C14.4789 17.1206 14.8821 16.7166 15.1815 16.239M9.48147 6.29697L10.7625 7.57797C11.1515 7.52597 11.564 7.49997 12 7.49997C15.066 7.49997 16.929 8.86797 18.042 10.2255C18.6532 10.9762 19.1325 11.8253 19.4595 12.7365C19.4845 12.8095 19.502 12.864 19.512 12.9L19.524 12.9375V12.942L19.5255 12.9435C19.581 13.1307 19.7073 13.2888 19.8776 13.3844C20.0478 13.4799 20.2487 13.5053 20.4374 13.4551C20.626 13.4049 20.7877 13.2831 20.888 13.1155C20.9883 12.948 21.0193 12.748 20.9745 12.558V12.5535L20.973 12.5475L20.967 12.528C20.9416 12.4331 20.9115 12.3394 20.877 12.2475C20.492 11.1682 19.9254 10.1627 19.2015 9.27447C17.8575 7.63347 15.594 5.99997 12.003 5.99997C11.076 5.99997 10.2375 6.10647 9.48147 6.29697Z"
    fill="currentColor" />
</svg>