<svg width="24" height="24" viewBox="0 0 24 24" fill="none" xmlns="http://www.w3.org/2000/svg">
<path d="M2.14282 20.0586V9.45194C2.14282 9.10882 2.22694 8.78379 2.39516 8.47685C2.56361 8.1697 2.79624 7.91681 3.09305 7.71818L10.5746 2.57626C10.9897 2.2873 11.4642 2.14282 11.998 2.14282C12.5318 2.14282 13.0076 2.2873 13.4253 2.57626L20.9069 7.71818C21.2037 7.91681 21.4363 8.1697 21.6048 8.47685C21.773 8.78379 21.8571 9.10882 21.8571 9.45194V20.0586C21.8571 20.549 21.6629 20.9713 21.2746 21.3256C20.8862 21.68 20.4232 21.8571 19.8857 21.8571H15.6901C15.3535 21.8571 15.0713 21.7532 14.8437 21.5454C14.6159 21.3377 14.502 21.0804 14.502 20.7732V14.9167C14.502 14.6097 14.3882 14.3524 14.1606 14.1445C13.9331 13.9369 13.6509 13.8331 13.3142 13.8331H10.6857C10.349 13.8331 10.0669 13.9369 9.83928 14.1445C9.61169 14.3524 9.49789 14.6097 9.49789 14.9167V20.7732C9.49789 21.0804 9.38399 21.3377 9.15618 21.5454C8.92859 21.7532 8.64646 21.8571 8.30978 21.8571H4.11425C3.57671 21.8571 3.11375 21.68 2.72538 21.3256C2.33701 20.9713 2.14282 20.549 2.14282 20.0586Z" fill="currentColor"/>
</svg>
