<svg width="24" height="24" viewBox="0 0 24 24" fill="none" xmlns="http://www.w3.org/2000/svg">
  <path
    d="M18 9.00112C18 7.40952 17.3679 5.88312 16.2426 4.75769C15.1174 3.63226 13.5913 3 12 3C10.4087 3 8.88258 3.63226 7.75736 4.75769C6.63214 5.88312 6 7.40952 6 9.00112C6 16.0024 3 18.0028 3 18.0028H21C21 18.0028 18 16.0024 18 9.00112Z"
    fill="#b2b8c0" stroke="#b2b8c0" stroke-width="2" stroke-linecap="round" stroke-linejoin="round" />
  <path
    d="M13.73 21.0034C13.5542 21.3065 13.3019 21.5581 12.9982 21.733C12.6946 21.9079 12.3504 22 12 22C11.6496 22 11.3054 21.9079 11.0018 21.733C10.6982 21.5581 10.4458 21.3065 10.27 21.0034"
    stroke="#b2b8c0" stroke-width="2" stroke-linecap="round" stroke-linejoin="round" />
  <line x1="10.5" y1="20.5" x2="13.5" y2="20.5" stroke="#b2b8c0" stroke-linecap="round" />
</svg>