<svg width="24" height="24" viewBox="0 0 24 24" fill="none" xmlns="http://www.w3.org/2000/svg">
  <path
    d="M11.25 13.5C12.0456 13.5 12.8087 13.8161 13.3713 14.3787C13.9339 14.9413 14.25 15.7044 14.25 16.5C14.25 17.9475 13.362 19.095 12.1335 19.845C10.905 20.592 9.2625 21 7.5 21C5.7375 21 4.095 20.592 2.8665 19.845C1.6365 19.095 0.75 17.9475 0.75 16.5C0.75 15.7044 1.06607 14.9413 1.62868 14.3787C2.19129 13.8161 2.95435 13.5 3.75 13.5H11.25ZM21.2295 13.512C21.7836 13.5688 22.2968 13.8291 22.6701 14.2425C23.0433 14.6559 23.2499 15.193 23.25 15.75C23.25 16.9065 22.545 17.8635 21.597 18.495C20.6445 19.131 19.3695 19.5 18 19.5C16.95 19.5 15.96 19.281 15.1245 18.8955C15.5115 18.201 15.7485 17.4015 15.7485 16.5C15.7485 15.3615 15.3225 14.325 14.625 13.5315C14.747 13.5115 14.872 13.501 15 13.5H21L21.2295 13.512ZM7.5 3.75C8.59402 3.75 9.64323 4.1846 10.4168 4.95818C11.1904 5.73177 11.625 6.78098 11.625 7.875C11.625 8.96902 11.1904 10.0182 10.4168 10.7918C9.64323 11.5654 8.59402 12 7.5 12C6.40598 12 5.35677 11.5654 4.58318 10.7918C3.8096 10.0182 3.375 8.96902 3.375 7.875C3.375 6.78098 3.8096 5.73177 4.58318 4.95818C5.35677 4.1846 6.40598 3.75 7.5 3.75ZM18.003 5.2455C18.4525 5.23603 18.8994 5.31638 19.3174 5.48184C19.7354 5.64731 20.1162 5.89456 20.4375 6.20911C20.7587 6.52365 21.014 6.89916 21.1882 7.31362C21.3624 7.72808 21.4522 8.17315 21.4522 8.62275C21.4522 9.07235 21.3624 9.51742 21.1882 9.93188C21.014 10.3463 20.7587 10.7218 20.4375 11.0364C20.1162 11.3509 19.7354 11.5982 19.3174 11.7637C18.8994 11.9291 18.4525 12.0095 18.003 12C17.1196 11.9814 16.2787 11.6174 15.6605 10.9861C15.0424 10.3547 14.6962 9.50632 14.6962 8.62275C14.6962 7.73918 15.0424 6.89077 15.6605 6.25944C16.2787 5.62811 17.1196 5.26412 18.003 5.2455Z"
    fill="currentColor" />
</svg>