<svg width="24" height="24" viewBox="0 0 24 24" fill="none" xmlns="http://www.w3.org/2000/svg">
  <path
    d="M12 22C17.5228 22 22 17.5228 22 12C22 6.47715 17.5228 2 12 2C6.47715 2 2 6.47715 2 12C2 17.5228 6.47715 22 12 22Z"
    fill="currentColor" />
  <path
    d="M11.9992 12.7141C13.9716 12.7141 15.5706 11.1152 15.5706 9.14272C15.5706 7.17027 13.9716 5.57129 11.9992 5.57129C10.0267 5.57129 8.42773 7.17027 8.42773 9.14272C8.42773 11.1152 10.0267 12.7141 11.9992 12.7141Z"
    fill="white" />
  <path
    d="M18.0619 16.9998C16.6208 15.2547 14.4406 14.1426 12.0007 14.1426C9.56074 14.1426 7.38058 15.2547 5.93945 16.9998C7.38058 18.7448 9.56074 19.8569 12.0007 19.8569C14.4406 19.8569 16.6208 18.7448 18.0619 16.9998Z"
    fill="white" />
</svg>