<svg width="24" height="24" viewBox="0 0 24 24" fill="none" xmlns="http://www.w3.org/2000/svg">
<path d="M13.7784 2.152C13.4086 2 12.9391 2 12 2C11.0609 2 10.5914 2 10.2216 2.152C9.97689 2.25251 9.75458 2.3999 9.56733 2.58572C9.38009 2.77155 9.23159 2.99218 9.13031 3.235C9.03761 3.458 9.00032 3.719 8.98622 4.098C8.97966 4.37193 8.90319 4.63973 8.76398 4.87635C8.62477 5.11298 8.42735 5.31069 8.1902 5.451C7.94918 5.58477 7.67791 5.65567 7.40177 5.65707C7.12563 5.65847 6.85364 5.59032 6.61126 5.459C6.2727 5.281 6.02785 5.183 5.78502 5.151C5.25533 5.08187 4.71966 5.22431 4.29576 5.547C3.97937 5.79 3.74359 6.193 3.27404 7C2.80449 7.807 2.5687 8.21 2.51732 8.605C2.48269 8.86545 2.50011 9.13012 2.56857 9.38389C2.63703 9.63767 2.75521 9.87556 2.91633 10.084C3.06546 10.276 3.27404 10.437 3.59748 10.639C4.07408 10.936 4.3804 11.442 4.3804 12C4.3804 12.558 4.07408 13.064 3.59748 13.36C3.27404 13.563 3.06445 13.724 2.91633 13.916C2.75521 14.1244 2.63703 14.3623 2.56857 14.6161C2.50011 14.8699 2.48269 15.1345 2.51732 15.395C2.56971 15.789 2.80449 16.193 3.27303 17C3.74359 17.807 3.97836 18.21 4.29576 18.453C4.50578 18.6129 4.74549 18.7302 5.0012 18.7981C5.2569 18.8661 5.52359 18.8834 5.78603 18.849C6.02785 18.817 6.2727 18.719 6.61126 18.541C6.85364 18.4097 7.12563 18.3415 7.40177 18.3429C7.67791 18.3443 7.94918 18.4152 8.1902 18.549C8.67688 18.829 8.96606 19.344 8.98622 19.902C9.00032 20.282 9.0366 20.542 9.13031 20.765C9.23159 21.0078 9.38009 21.2284 9.56733 21.4143C9.75458 21.6001 9.97689 21.7475 10.2216 21.848C10.5914 22 11.0609 22 12 22C12.9391 22 13.4086 22 13.7784 21.848C14.0231 21.7475 14.2454 21.6001 14.4327 21.4143C14.6199 21.2284 14.7684 21.0078 14.8697 20.765C14.9624 20.542 14.9997 20.282 15.0138 19.902C15.0339 19.344 15.3231 18.828 15.8098 18.549C16.0508 18.4152 16.3221 18.3443 16.5982 18.3429C16.8744 18.3415 17.1464 18.4097 17.3887 18.541C17.7273 18.719 17.9721 18.817 18.214 18.849C18.4764 18.8834 18.7431 18.8661 18.9988 18.7981C19.2545 18.7302 19.4942 18.6129 19.7042 18.453C20.0216 18.211 20.2564 17.807 20.726 17C21.1955 16.193 21.4313 15.79 21.4827 15.395C21.5173 15.1345 21.4999 14.8699 21.4314 14.6161C21.363 14.3623 21.2448 14.1244 21.0837 13.916C20.9345 13.724 20.726 13.563 20.4025 13.361C20.1667 13.2184 19.9711 13.0187 19.8342 12.7807C19.6973 12.5427 19.6234 12.2741 19.6196 12C19.6196 11.442 19.9259 10.936 20.4025 10.64C20.726 10.437 20.9355 10.276 21.0837 10.084C21.2448 9.87556 21.363 9.63767 21.4314 9.38389C21.4999 9.13012 21.5173 8.86545 21.4827 8.605C21.4303 8.211 21.1955 7.807 20.727 7C20.2564 6.193 20.0216 5.79 19.7042 5.547C19.4942 5.38709 19.2545 5.26981 18.9988 5.20187C18.7431 5.13392 18.4764 5.11663 18.214 5.151C17.9721 5.183 17.7273 5.281 17.3877 5.459C17.1455 5.59014 16.8737 5.65819 16.5977 5.6568C16.3218 5.6554 16.0507 5.58459 15.8098 5.451C15.5727 5.31069 15.3752 5.11298 15.236 4.87635C15.0968 4.63973 15.0203 4.37193 15.0138 4.098C14.9997 3.718 14.9634 3.458 14.8697 3.235C14.7684 2.99218 14.6199 2.77155 14.4327 2.58572C14.2454 2.3999 14.0231 2.25251 13.7784 2.152Z" fill="#B2B8C0"/>
<path d="M12 15C13.6569 15 15 13.6569 15 12C15 10.3431 13.6569 9 12 9C10.3431 9 9 10.3431 9 12C9 13.6569 10.3431 15 12 15Z" fill="white"/>
</svg>
