<svg width="24" height="24" viewBox="0 0 24 24" fill="none" xmlns="http://www.w3.org/2000/svg">
<path d="M13.872 1.6596C13.4828 1.5 12.9885 1.5 12 1.5C11.0115 1.5 10.5172 1.5 10.128 1.6596C9.87041 1.76514 9.6364 1.91989 9.4393 2.11501C9.2422 2.31013 9.08588 2.54179 8.97927 2.79675C8.88169 3.0309 8.84245 3.30495 8.8276 3.7029C8.82069 3.99053 8.7402 4.27172 8.59366 4.52017C8.44712 4.76863 8.23932 4.97623 7.98968 5.12355C7.73598 5.26401 7.45044 5.33846 7.15976 5.33993C6.86908 5.34139 6.58278 5.26984 6.32765 5.13195C5.97127 4.94505 5.71353 4.84215 5.45791 4.80855C4.90035 4.73596 4.33649 4.88552 3.89027 5.22435C3.55723 5.4795 3.30904 5.90265 2.81477 6.75C2.32051 7.59735 2.07232 8.0205 2.01823 8.43525C1.98178 8.70872 2.00011 8.98663 2.07218 9.25309C2.14425 9.51955 2.26864 9.76934 2.43824 9.9882C2.59522 10.1898 2.81478 10.3588 3.15524 10.5709C3.65693 10.8828 3.97937 11.4141 3.97937 12C3.97937 12.5859 3.65693 13.1172 3.15524 13.428C2.81478 13.6411 2.59416 13.8102 2.43824 14.0118C2.26864 14.2307 2.14425 14.4804 2.07218 14.7469C2.00011 15.0134 1.98178 15.2913 2.01823 15.5647C2.07338 15.9784 2.32051 16.4026 2.81371 17.25C3.30904 18.0973 3.55617 18.5205 3.89027 18.7756C4.11135 18.9436 4.36368 19.0667 4.63284 19.138C4.902 19.2094 5.18273 19.2275 5.45897 19.1914C5.71353 19.1578 5.97127 19.0549 6.32765 18.868C6.58278 18.7302 6.86908 18.6586 7.15976 18.6601C7.45044 18.6615 7.73598 18.736 7.98968 18.8764C8.50198 19.1704 8.80638 19.7112 8.8276 20.2971C8.84245 20.6961 8.88063 20.9691 8.97927 21.2032C9.08588 21.4582 9.2422 21.6899 9.4393 21.885C9.6364 22.0801 9.87041 22.2349 10.128 22.3404C10.5172 22.5 11.0115 22.5 12 22.5C12.9885 22.5 13.4828 22.5 13.872 22.3404C14.1296 22.2349 14.3636 22.0801 14.5607 21.885C14.7578 21.6899 14.9141 21.4582 15.0207 21.2032C15.1183 20.9691 15.1576 20.6961 15.1724 20.2971C15.1936 19.7112 15.498 19.1694 16.0103 18.8764C16.264 18.736 16.5496 18.6615 16.8402 18.6601C17.1309 18.6586 17.4172 18.7302 17.6724 18.868C18.0287 19.0549 18.2865 19.1578 18.541 19.1914C18.8173 19.2275 19.098 19.2094 19.3672 19.138C19.6363 19.0667 19.8887 18.9436 20.1097 18.7756C20.4438 18.5215 20.691 18.0973 21.1852 17.25C21.6795 16.4026 21.9277 15.9795 21.9818 15.5647C22.0182 15.2913 21.9999 15.0134 21.9278 14.7469C21.8558 14.4804 21.7314 14.2307 21.5618 14.0118C21.4048 13.8102 21.1852 13.6411 20.8448 13.429C20.5965 13.2793 20.3907 13.0697 20.2465 12.8197C20.1024 12.5698 20.0247 12.2878 20.0206 12C20.0206 11.4141 20.3431 10.8828 20.8448 10.572C21.1852 10.3588 21.4058 10.1898 21.5618 9.9882C21.7314 9.76934 21.8558 9.51955 21.9278 9.25309C21.9999 8.98663 22.0182 8.70872 21.9818 8.43525C21.9266 8.02155 21.6795 7.59735 21.1863 6.75C20.691 5.90265 20.4438 5.4795 20.1097 5.22435C19.8887 5.05645 19.6363 4.9333 19.3672 4.86196C19.098 4.79062 18.8173 4.77247 18.541 4.80855C18.2865 4.84215 18.0287 4.94505 17.6713 5.13195C17.4163 5.26965 17.1302 5.3411 16.8397 5.33964C16.5492 5.33817 16.2639 5.26382 16.0103 5.12355C15.7607 4.97623 15.5529 4.76863 15.4063 4.52017C15.2598 4.27172 15.1793 3.99053 15.1724 3.7029C15.1576 3.3039 15.1194 3.0309 15.0207 2.79675C14.9141 2.54179 14.7578 2.31013 14.5607 2.11501C14.3636 1.91989 14.1296 1.76514 13.872 1.6596Z" fill="#B2B8C0" stroke="#B2B8C0"/>
<path d="M12 15C13.6569 15 15 13.6569 15 12C15 10.3431 13.6569 9 12 9C10.3431 9 9 10.3431 9 12C9 13.6569 10.3431 15 12 15Z" fill="white"/>
</svg>
