<svg width="150" height="101" viewBox="0 0 150 101" fill="none" xmlns="http://www.w3.org/2000/svg">
<path d="M120.639 38.2803C116.399 16.7711 97.5086 0.623535 74.8148 0.623535C56.7969 0.623535 41.1481 10.8482 33.3549 25.8112C14.5889 27.8063 0 43.7044 0 62.9692C0 83.6056 16.771 100.377 37.4074 100.377H118.457C135.664 100.377 149.63 86.4112 149.63 69.2038C149.63 52.7445 136.849 39.4025 120.639 38.2803Z" fill="#AAD1F0"/>
<path d="M59.8519 63.5925C59.8519 63.5925 65.463 71.074 74.8148 71.074C84.1667 71.074 89.7778 63.5925 89.7778 63.5925" stroke="black" stroke-width="7" stroke-linecap="round" stroke-linejoin="round"/>
<path d="M63.5926 44.8889H63.6301" stroke="black" stroke-width="8" stroke-linecap="round" stroke-linejoin="round"/>
<path d="M86.037 44.8889H86.0745" stroke="black" stroke-width="8" stroke-linecap="round" stroke-linejoin="round"/>
</svg>
