<svg width="28" height="28" viewBox="0 0 28 28" fill="none" xmlns="http://www.w3.org/2000/svg">
<path d="M2.5 12.1993C2.5 11.5369 3.03694 11 3.69929 11H24.3007C24.9631 11 25.5 11.5369 25.5 12.1993V21.2028C25.5 23.8522 23.3522 26 20.7028 26H7.29718C4.64777 26 2.5 23.8522 2.5 21.2028V12.1993Z" fill="#B2B8C0"/>
<path d="M2.5 8.17313C2.5 8.77852 2.99076 9.26929 3.59615 9.26929H24.4038C25.0092 9.26929 25.5 8.77852 25.5 8.17313V8.17313C25.5 5.75158 23.5369 3.78852 21.1154 3.78852H6.88462C4.46306 3.78852 2.5 5.75158 2.5 8.17313V8.17313Z" fill="#B2B8C0"/>
<ellipse cx="13.9711" cy="15.2116" rx="1.30025" ry="1.32692" fill="white"/>
<ellipse cx="9.34797" cy="15.2116" rx="1.35804" ry="1.32692" fill="white"/>
<ellipse cx="9.34797" cy="19.5961" rx="1.35804" ry="1.32692" fill="white"/>
<ellipse cx="18.5942" cy="19.5961" rx="1.35804" ry="1.32692" fill="white"/>
<ellipse cx="18.5942" cy="15.2116" rx="1.35804" ry="1.32692" fill="white"/>
<ellipse cx="13.9711" cy="19.5961" rx="1.30025" ry="1.32692" fill="white"/>
<line x1="9.44169" y1="2.98942" x2="9.44169" y2="4.18366" stroke="#B2B8C0" stroke-width="1.97884" stroke-linecap="round"/>
<line x1="9.38389" y1="2.98942" x2="9.38389" y2="4.18366" stroke="#B2B8C0" stroke-width="1.97884" stroke-linecap="round"/>
<line x1="0.989418" y1="-0.989418" x2="2.18366" y2="-0.989418" transform="matrix(0 1 1 0 19.6633 2)" stroke="#B2B8C0" stroke-width="1.97884" stroke-linecap="round"/>
</svg>
