<svg width="28" height="28" viewBox="0 0 28 28" fill="none" xmlns="http://www.w3.org/2000/svg">
<mask id="mask0_961_2648" style="mask-type:alpha" maskUnits="userSpaceOnUse" x="0" y="0" width="28" height="28">
<rect width="28" height="28" fill="#D9D9D9"/>
</mask>
<g mask="url(#mask0_961_2648)">
<path d="M2.5 23.4017V11.0273C2.5 10.627 2.59813 10.2478 2.7944 9.8897C2.99092 9.53136 3.26232 9.23632 3.6086 9.00458L12.3371 3.00568C12.8214 2.66856 13.3749 2.5 13.9977 2.5C14.6205 2.5 15.1756 2.66856 15.6629 3.00568L24.3914 9.00458C24.7377 9.23632 25.0091 9.53136 25.2056 9.8897C25.4019 10.2478 25.5 10.627 25.5 11.0273V23.4017C25.5 23.9739 25.2735 24.4666 24.8204 24.88C24.3673 25.2933 23.8271 25.5 23.2 25.5H18.3052C17.9124 25.5 17.5833 25.3788 17.3177 25.1363C17.052 24.8941 16.9191 24.5938 16.9191 24.2355V17.4028C16.9191 17.0447 16.7863 16.7445 16.5208 16.502C16.2553 16.2598 15.9261 16.1386 15.5333 16.1386H12.4667C12.0739 16.1386 11.7447 16.2598 11.4792 16.502C11.2137 16.7445 11.0809 17.0447 11.0809 17.4028V24.2355C11.0809 24.5938 10.948 24.8941 10.6823 25.1363C10.4167 25.3788 10.0876 25.5 9.69478 25.5H4.8C4.17287 25.5 3.63275 25.2933 3.17965 24.88C2.72655 24.4666 2.5 23.9739 2.5 23.4017Z" fill="#B2B8C0"/>
</g>
</svg>
