<svg width="28" height="28" viewBox="0 0 28 28" fill="none" xmlns="http://www.w3.org/2000/svg">
<path d="M14 25.6667C20.4433 25.6667 25.6667 20.4434 25.6667 14C25.6667 7.55672 20.4433 2.33337 14 2.33337C7.55669 2.33337 2.33334 7.55672 2.33334 14C2.33334 20.4434 7.55669 25.6667 14 25.6667Z" fill="#B2B8C0"/>
<path d="M13.999 14.8332C16.3002 14.8332 18.1657 12.9677 18.1657 10.6665C18.1657 8.36536 16.3002 6.49988 13.999 6.49988C11.6978 6.49988 9.83237 8.36536 9.83237 10.6665C9.83237 12.9677 11.6978 14.8332 13.999 14.8332Z" fill="white"/>
<path d="M21.0723 19.8331C19.3909 17.7973 16.8474 16.4998 14.0008 16.4998C11.1542 16.4998 8.6107 17.7973 6.92938 19.8331C8.6107 21.869 11.1542 23.1665 14.0008 23.1665C16.8474 23.1665 19.3909 21.869 21.0723 19.8331Z" fill="white"/>
</svg>
